<svg width="10" height="9" viewBox="0 0 10 9" fill="none" xmlns="http://www.w3.org/2000/svg">
<path d="M3.34662 8.89424C3.37572 8.86081 3.39881 8.82108 3.41456 8.77735C3.43032 8.73362 3.43842 8.68673 3.43842 8.63938C3.43842 8.59203 3.43032 8.54515 3.41456 8.50142C3.39881 8.45768 3.37572 8.41796 3.34662 8.38452L1.06737 5.75959H5.31276C6.55589 5.75959 7.74811 5.1907 8.62714 4.17808C9.50617 3.16545 10 1.79204 10 0.359974C10 0.264503 9.96708 0.172942 9.90848 0.105434C9.84987 0.0379255 9.77039 3.16879e-08 9.68752 3.16879e-08C9.60464 3.16879e-08 9.52516 0.0379255 9.46656 0.105434C9.40796 0.172942 9.37503 0.264503 9.37503 0.359974C9.37503 1.6011 8.94705 2.79139 8.18522 3.669C7.4234 4.54661 6.39014 5.03964 5.31276 5.03964H1.06737L3.34662 2.41471C3.4053 2.34711 3.43826 2.25544 3.43826 2.15985C3.43826 2.06425 3.4053 1.97258 3.34662 1.90498C3.28795 1.83739 3.20836 1.79942 3.12538 1.79942C3.0424 1.79942 2.96282 1.83739 2.90415 1.90498L0.0918035 5.14475C0.0627031 5.17819 0.0396151 5.21791 0.023862 5.26165C0.00810883 5.30538 0 5.35226 0 5.39961C0 5.44696 0.00810883 5.49385 0.023862 5.53758C0.0396151 5.58131 0.0627031 5.62104 0.0918035 5.65448L2.90415 8.89424C2.93317 8.92777 2.96766 8.95436 3.00562 8.97251C3.04358 8.99066 3.08428 9 3.12538 9C3.16649 9 3.20718 8.99066 3.24515 8.97251C3.28311 8.95436 3.31759 8.92777 3.34662 8.89424Z" fill="black"/>
</svg>
