<svg width="54" height="54" viewBox="0 0 54 54" fill="none" xmlns="http://www.w3.org/2000/svg">
<rect width="54" height="54" rx="10" fill="white"/>
<path d="M27.5 11C23.1253 11.0046 18.9312 12.7445 15.8378 15.8378C12.7445 18.9312 11.0046 23.1253 11 27.5V40.8269C11 41.6685 11.3343 42.4756 11.9294 43.0706C12.5244 43.6657 13.3315 44 14.1731 44H27.5C31.8761 44 36.0729 42.2616 39.1673 39.1673C42.2616 36.0729 44 31.8761 44 27.5C44 23.1239 42.2616 18.9271 39.1673 15.8327C36.0729 12.7384 31.8761 11 27.5 11ZM27.5 40.1923H14.8077V27.5C14.8077 24.9897 15.5521 22.5358 16.9467 20.4485C18.3414 18.3613 20.3236 16.7345 22.6429 15.7738C24.9621 14.8132 27.5141 14.5618 29.9761 15.0516C32.4382 15.5413 34.6998 16.7501 36.4748 18.5252C38.2499 20.3002 39.4587 22.5618 39.9484 25.0239C40.4382 27.4859 40.1868 30.0379 39.2262 32.3571C38.2655 34.6764 36.6387 36.6586 34.5515 38.0533C32.4642 39.4479 30.0103 40.1923 27.5 40.1923Z" fill="#8C74EB"/>
</svg>
