<svg width="21" height="11" viewBox="0 0 21 11" fill="none" xmlns="http://www.w3.org/2000/svg">
<path d="M10.1045 1.90957L18.734 10.5007C18.8035 10.5714 18.8863 10.6276 18.9777 10.6661C19.0691 10.7046 19.1673 10.7246 19.2664 10.7249C19.3656 10.7252 19.4638 10.7058 19.5555 10.6679C19.6471 10.63 19.7303 10.5743 19.8003 10.504C19.8702 10.4337 19.9256 10.3503 19.9631 10.2585C20.0006 10.1667 20.0195 10.0683 20.0187 9.96915C20.018 9.86999 19.9976 9.77196 19.9587 9.68073C19.9198 9.58951 19.8632 9.5069 19.7922 9.4377L10.6456 0.332642C10.5071 0.19483 10.3203 0.116474 10.125 0.114243C9.92968 0.112012 9.74118 0.186082 9.59962 0.320696L0.247437 9.21447C0.174848 9.28203 0.116381 9.36332 0.0754155 9.45364C0.0344505 9.54395 0.011803 9.64149 0.00878305 9.74061C0.0057631 9.83973 0.0224304 9.93847 0.0578215 10.0311C0.0932125 10.1237 0.146623 10.2084 0.214965 10.2803C0.283306 10.3522 0.365221 10.4098 0.455967 10.4498C0.546713 10.4897 0.64449 10.5113 0.74364 10.5133C0.842789 10.5153 0.941342 10.4975 1.0336 10.4612C1.12585 10.4248 1.20997 10.3705 1.28109 10.3013L10.1045 1.90957Z" fill="#8C74EB"/>
</svg>
