<svg width="54" height="54" viewBox="0 0 54 54" fill="none" xmlns="http://www.w3.org/2000/svg">
<rect width="54" height="54" rx="10" fill="white"/>
<path d="M37.9219 9C38.9552 8.99987 39.9501 9.38933 40.7054 10.0897C41.4608 10.79 41.9202 11.749 41.9909 12.7728L42 13.05V40.95C42.0001 41.9762 41.608 42.9642 40.9028 43.7144C40.1976 44.4645 39.2319 44.9208 38.201 44.991L37.9219 45H17.0781C16.0448 45.0001 15.0499 44.6107 14.2946 43.9103C13.5392 43.21 13.0798 42.251 13.0091 41.2272L13 40.95V13.05C12.9999 12.0238 13.392 11.0358 14.0972 10.2856C14.8024 9.53553 15.7681 9.07924 16.799 9.009L17.0781 9H37.9219ZM21.1653 14.409C20.4443 14.409 19.7527 14.6935 19.2429 15.1998C18.733 15.7062 18.4466 16.3929 18.4466 17.109C18.4466 17.8251 18.733 18.5118 19.2429 19.0182C19.7527 19.5245 20.4443 19.809 21.1653 19.809H33.8528C34.5739 19.809 35.2654 19.5245 35.7753 19.0182C36.2851 18.5118 36.5716 17.8251 36.5716 17.109C36.5716 16.3929 36.2851 15.7062 35.7753 15.1998C35.2654 14.6935 34.5739 14.409 33.8528 14.409H21.1653Z" fill="#8C74EB"/>
</svg>
