<svg width="20" height="20" viewBox="0 0 20 20" fill="none" xmlns="http://www.w3.org/2000/svg">
<g clip-path="url(#clip0_214_28)">
<path d="M14.5389 9.44441H10.5555V5.46107C10.5555 5.31373 10.497 5.17242 10.3928 5.06824C10.2886 4.96405 10.1473 4.90552 9.99996 4.90552C9.85262 4.90552 9.71131 4.96405 9.60712 5.06824C9.50294 5.17242 9.44441 5.31373 9.44441 5.46107V9.44441H5.46107C5.31373 9.44441 5.17242 9.50294 5.06824 9.60712C4.96405 9.71131 4.90552 9.85262 4.90552 9.99996C4.90552 10.1473 4.96405 10.2886 5.06824 10.3928C5.17242 10.497 5.31373 10.5555 5.46107 10.5555H9.44441V14.5389C9.44441 14.6862 9.50294 14.8275 9.60712 14.9317C9.71131 15.0359 9.85262 15.0944 9.99996 15.0944C10.1473 15.0944 10.2886 15.0359 10.3928 14.9317C10.497 14.8275 10.5555 14.6862 10.5555 14.5389V10.5555H14.5389C14.6862 10.5555 14.8275 10.497 14.9317 10.3928C15.0359 10.2886 15.0944 10.1473 15.0944 9.99996C15.0944 9.85262 15.0359 9.71131 14.9317 9.60712C14.8275 9.50294 14.6862 9.44441 14.5389 9.44441Z" fill="#8C74EB"/>
<path d="M9.99998 1.11108C8.24192 1.11108 6.52334 1.63241 5.06157 2.60913C3.5998 3.58586 2.46049 4.97411 1.78771 6.59834C1.11494 8.22257 0.938906 10.0098 1.28189 11.7341C1.62487 13.4584 2.47145 15.0422 3.71458 16.2854C4.95772 17.5285 6.54157 18.3751 8.26584 18.7181C9.99012 19.061 11.7774 18.885 13.4016 18.2122C15.0258 17.5395 16.4141 16.4001 17.3908 14.9384C18.3675 13.4766 18.8889 11.758 18.8889 9.99997C18.8889 7.64249 17.9524 5.38157 16.2854 3.71458C14.6184 2.04759 12.3575 1.11108 9.99998 1.11108ZM9.99998 17.7778C8.46168 17.7778 6.95792 17.3216 5.67888 16.467C4.39983 15.6123 3.40293 14.3976 2.81425 12.9764C2.22557 11.5552 2.07154 9.99135 2.37165 8.4826C2.67175 6.97386 3.41252 5.588 4.50026 4.50025C5.588 3.41251 6.97387 2.67175 8.48261 2.37164C9.99135 2.07154 11.5552 2.22556 12.9764 2.81424C14.3976 3.40293 15.6123 4.39982 16.467 5.67887C17.3216 6.95792 17.7778 8.46167 17.7778 9.99997C17.7778 12.0628 16.9583 14.0411 15.4997 15.4997C14.0411 16.9583 12.0628 17.7778 9.99998 17.7778Z" fill="#8C74EB"/>
</g>
<defs>
<clipPath id="clip0_214_28">
<rect width="20" height="20" fill="white"/>
</clipPath>
</defs>
</svg>
