<svg width="54" height="54" viewBox="0 0 54 54" fill="none" xmlns="http://www.w3.org/2000/svg">
<rect width="54" height="54" rx="10" fill="white"/>
<path d="M9 13.8462C9 11.1711 11.1711 9 13.8462 9H20.7692C23.4443 9 25.6154 11.1711 25.6154 13.8462V20.7692C25.6154 22.0545 25.1048 23.2871 24.196 24.196C23.2871 25.1048 22.0545 25.6154 20.7692 25.6154H13.8462C12.5609 25.6154 11.3282 25.1048 10.4194 24.196C9.51058 23.2871 9 22.0545 9 20.7692V13.8462ZM28.3846 13.8462C28.3846 11.1711 30.5557 9 33.2308 9H40.1538C42.8289 9 45 11.1711 45 13.8462V20.7692C45 22.0545 44.4894 23.2871 43.5806 24.196C42.6718 25.1048 41.4391 25.6154 40.1538 25.6154H33.2308C31.9455 25.6154 30.7129 25.1048 29.804 24.196C28.8952 23.2871 28.3846 22.0545 28.3846 20.7692V13.8462ZM9 33.2308C9 30.5557 11.1711 28.3846 13.8462 28.3846H20.7692C23.4443 28.3846 25.6154 30.5557 25.6154 33.2308V40.1538C25.6154 41.4391 25.1048 42.6718 24.196 43.5806C23.2871 44.4894 22.0545 45 20.7692 45H13.8462C12.5609 45 11.3282 44.4894 10.4194 43.5806C9.51058 42.6718 9 41.4391 9 40.1538V33.2308ZM28.3846 33.2308C28.3846 30.5557 30.5557 28.3846 33.2308 28.3846H40.1538C42.8289 28.3846 45 30.5557 45 33.2308V40.1538C45 41.4391 44.4894 42.6718 43.5806 43.5806C42.6718 44.4894 41.4391 45 40.1538 45H33.2308C31.9455 45 30.7129 44.4894 29.804 43.5806C28.8952 42.6718 28.3846 41.4391 28.3846 40.1538V33.2308ZM13.8462 13.1538C13.6625 13.1538 13.4865 13.2268 13.3566 13.3566C13.2268 13.4865 13.1538 13.6625 13.1538 13.8462V20.7692C13.1538 21.1514 13.464 21.4615 13.8462 21.4615H20.7692C20.9528 21.4615 21.1289 21.3886 21.2588 21.2588C21.3886 21.1289 21.4615 20.9528 21.4615 20.7692V13.8462C21.4615 13.6625 21.3886 13.4865 21.2588 13.3566C21.1289 13.2268 20.9528 13.1538 20.7692 13.1538H13.8462ZM33.2308 13.1538C33.0472 13.1538 32.8711 13.2268 32.7412 13.3566C32.6114 13.4865 32.5385 13.6625 32.5385 13.8462V20.7692C32.5385 21.1514 32.8486 21.4615 33.2308 21.4615H40.1538C40.3375 21.4615 40.5135 21.3886 40.6434 21.2588C40.7732 21.1289 40.8462 20.9528 40.8462 20.7692V13.8462C40.8462 13.6625 40.7732 13.4865 40.6434 13.3566C40.5135 13.2268 40.3375 13.1538 40.1538 13.1538H33.2308ZM13.8462 32.5385C13.6625 32.5385 13.4865 32.6114 13.3566 32.7412C13.2268 32.8711 13.1538 33.0472 13.1538 33.2308V40.1538C13.1538 40.536 13.464 40.8462 13.8462 40.8462H20.7692C20.9528 40.8462 21.1289 40.7732 21.2588 40.6434C21.3886 40.5135 21.4615 40.3375 21.4615 40.1538V33.2308C21.4615 33.0472 21.3886 32.8711 21.2588 32.7412C21.1289 32.6114 20.9528 32.5385 20.7692 32.5385H13.8462ZM33.2308 32.5385C33.0472 32.5385 32.8711 32.6114 32.7412 32.7412C32.6114 32.8711 32.5385 33.0472 32.5385 33.2308V40.1538C32.5385 40.536 32.8486 40.8462 33.2308 40.8462H40.1538C40.3375 40.8462 40.5135 40.7732 40.6434 40.6434C40.7732 40.5135 40.8462 40.3375 40.8462 40.1538V33.2308C40.8462 33.0472 40.7732 32.8711 40.6434 32.7412C40.5135 32.6114 40.3375 32.5385 40.1538 32.5385H33.2308Z" fill="#8C74EB"/>
</svg>
