<svg width="25" height="25" viewBox="0 0 25 25" fill="none" xmlns="http://www.w3.org/2000/svg">
<path d="M7.14999 18.0789L9.35124 17.4439L22.605 4.03146C22.7095 3.92433 22.7677 3.78037 22.767 3.63069C22.7663 3.481 22.7068 3.3376 22.6012 3.23146L21.8075 2.42896C21.7562 2.37626 21.6949 2.3343 21.6272 2.30553C21.5595 2.27677 21.4868 2.26177 21.4133 2.26142C21.3397 2.26107 21.2668 2.27538 21.1989 2.3035C21.1309 2.33162 21.0693 2.37299 21.0175 2.42521L7.79874 15.8027L7.14999 18.0789ZM23.3787 0.838962L24.1725 1.64271C25.2675 2.75146 25.2775 4.54021 24.1925 5.6377L10.535 19.4602L5.82999 20.8152C5.54274 20.8956 5.23532 20.8587 4.97519 20.7127C4.71507 20.5667 4.52349 20.3235 4.44249 20.0364C4.38222 19.83 4.38135 19.6108 4.43999 19.4039L5.80874 14.6039L19.43 0.817712C19.689 0.55691 19.9973 0.35029 20.337 0.209903C20.6767 0.0695168 21.041 -0.00182614 21.4085 3.5516e-05C21.7761 0.00189717 22.1396 0.0769261 22.4779 0.220746C22.8161 0.364567 23.1224 0.575549 23.3787 0.838962ZM8.97999 2.28021C9.59999 2.28021 10.1025 2.78896 10.1025 3.41646C10.1035 3.56479 10.0752 3.71187 10.0193 3.84927C9.96343 3.98668 9.881 4.11172 9.77675 4.21725C9.6725 4.32277 9.54847 4.40672 9.41176 4.46428C9.27504 4.52184 9.12832 4.55189 8.97999 4.55271H4.48999C3.25 4.55271 2.245 5.5702 2.245 6.82395V20.4564C2.245 21.7114 3.25 22.7289 4.48999 22.7289H17.96C19.2 22.7289 20.2062 21.7114 20.2062 20.4564V15.9127C20.2062 15.2852 20.7087 14.7764 21.3287 14.7764C21.9487 14.7764 22.4512 15.2852 22.4512 15.9139V20.4564C22.4512 22.9664 20.44 25.0014 17.96 25.0014H4.48999C2.01 25.0014 0 22.9664 0 20.4564V6.82395C0 4.31521 2.01 2.28021 4.48999 2.28021H8.97999Z" fill="#6459F7"/>
</svg>
