<svg width="25" height="25" viewBox="0 0 25 25" fill="none" xmlns="http://www.w3.org/2000/svg">
<path d="M12.5 0C10.0277 0 7.61099 0.733112 5.55538 2.10663C3.49976 3.48015 1.89761 5.43238 0.951511 7.71646C0.00541606 10.0005 -0.242126 12.5139 0.24019 14.9386C0.722505 17.3634 1.91301 19.5907 3.66117 21.3388C5.40933 23.087 7.63661 24.2775 10.0614 24.7598C12.4861 25.2421 14.9995 24.9946 17.2835 24.0485C19.5676 23.1024 21.5199 21.5002 22.8934 19.4446C24.2669 17.389 25 14.9723 25 12.5C24.9965 9.18587 23.6784 6.00848 21.335 3.66503C18.9915 1.32158 15.8141 0.00349978 12.5 0ZM16.3462 15.8654C16.3462 15.9929 16.2955 16.1152 16.2053 16.2053C16.1152 16.2955 15.9929 16.3462 15.8654 16.3462H9.13462C9.00711 16.3462 8.88483 16.2955 8.79466 16.2053C8.7045 16.1152 8.65385 15.9929 8.65385 15.8654V9.13461C8.65385 9.00711 8.7045 8.88482 8.79466 8.79466C8.88483 8.7045 9.00711 8.65384 9.13462 8.65384H15.8654C15.9929 8.65384 16.1152 8.7045 16.2053 8.79466C16.2955 8.88482 16.3462 9.00711 16.3462 9.13461V15.8654Z" fill="#6459F7"/>
</svg>
