<svg width="19" height="18" viewBox="0 0 19 18" fill="none" xmlns="http://www.w3.org/2000/svg">
<path d="M10.9084 5.69935C11.4418 5.60049 11.9364 5.35267 12.3348 4.98453C12.7333 4.61638 13.0194 4.14297 13.1601 3.61902C13.3008 3.09508 13.2903 2.54201 13.1299 2.02378C12.9694 1.50554 12.6656 1.04331 12.2534 0.69054C11.8413 0.337767 11.3377 0.108862 10.8009 0.0302963C10.2641 -0.0482694 9.71606 0.0267138 9.2201 0.246574C8.72414 0.466435 8.30055 0.822192 7.99831 1.2727C7.69606 1.72322 7.52752 2.25008 7.51216 2.79237H8.91102C10.0142 2.79237 10.9084 3.68655 10.9084 4.78973V5.69935ZM5.80811 14.8882H8.91102C10.0142 14.8882 10.9084 13.994 10.9084 12.8908V6.62916H14.2132C14.4332 6.63476 14.6421 6.72742 14.7939 6.88682C14.9457 7.04621 15.0281 7.25933 15.023 7.4794V12.5785C15.0536 13.8988 14.559 15.1773 13.6477 16.1331C12.7363 17.089 11.4829 17.644 10.1626 17.6764C8.24128 17.6289 6.60016 16.5008 5.80811 14.8858V14.8882ZM18.5582 3.75899C18.5582 4.02012 18.5068 4.27869 18.4068 4.51994C18.3069 4.76119 18.1604 4.98039 17.9758 5.16504C17.7912 5.34968 17.5719 5.49615 17.3307 5.59608C17.0894 5.69601 16.8309 5.74744 16.5697 5.74744C16.3086 5.74744 16.0501 5.69601 15.8088 5.59608C15.5675 5.49615 15.3483 5.34968 15.1637 5.16504C14.9791 4.98039 14.8326 4.76119 14.7327 4.51994C14.6327 4.27869 14.5813 4.02012 14.5813 3.75899C14.5813 3.23162 14.7908 2.72585 15.1637 2.35294C15.5366 1.98003 16.0424 1.77053 16.5697 1.77053C17.0971 1.77053 17.6029 1.98003 17.9758 2.35294C18.3487 2.72585 18.5582 3.23162 18.5582 3.75899ZM15.9006 15.0259L15.7581 15.0235C16.0749 14.2436 16.2289 13.4071 16.2105 12.5654V7.49127C16.2151 7.1947 16.1543 6.90075 16.0324 6.63034H18.1604C18.6235 6.63034 19 7.00678 19 7.4699V11.9408C18.9993 12.7588 18.6741 13.5432 18.0957 14.1216C17.5172 14.7 16.7329 15.0253 15.9148 15.0259H15.9006Z" fill="#6459F7"/>
<path d="M0.809873 3.9801H8.91094C9.35863 3.9801 9.72081 4.34229 9.72081 4.78997V12.891C9.72112 12.9975 9.70039 13.1029 9.6598 13.2013C9.61921 13.2997 9.55957 13.3891 9.4843 13.4644C9.40904 13.5397 9.31963 13.5993 9.22124 13.6399C9.12284 13.6805 9.01738 13.7012 8.91094 13.7009H0.809873C0.703431 13.7012 0.597978 13.6805 0.499579 13.6399C0.401179 13.5993 0.311775 13.5397 0.23651 13.4644C0.161244 13.3891 0.101601 13.2997 0.0610126 13.2013C0.0204239 13.1029 -0.000310023 12.9975 3.50325e-06 12.891V4.78878C3.50325e-06 4.3411 0.362188 3.9801 0.809873 3.9801ZM6.99195 7.06283V6.20784H2.72886V7.06283H4.34029V11.4744H5.3734V7.06283H6.99195Z" fill="#6459F7"/>
</svg>
