<svg width="14" height="14" viewBox="0 0 14 14" fill="none" xmlns="http://www.w3.org/2000/svg">
<path d="M10 1.75C11.8105 2.78275 13 4.7665 13 7C13 8.18669 12.6481 9.34672 11.9888 10.3334C11.3295 11.3201 10.3925 12.0891 9.2961 12.5433C8.19974 12.9974 6.99335 13.1162 5.82946 12.8847C4.66557 12.6532 3.59648 12.0818 2.75736 11.2426C1.91825 10.4035 1.3468 9.33443 1.11529 8.17054C0.88378 7.00665 1.0026 5.80025 1.45673 4.7039C1.91085 3.60754 2.67989 2.67047 3.66658 2.01118C4.65328 1.35189 5.81331 1 7 1" stroke="black" stroke-linecap="round" stroke-linejoin="round"/>
<path d="M10 4.75V1.75H13" stroke="black" stroke-linecap="round" stroke-linejoin="round"/>
</svg>
