<svg width="12" height="12" viewBox="0 0 12 12" fill="none" xmlns="http://www.w3.org/2000/svg">
<path d="M6 9.066L2.96743 6.03257L3.57343 5.41629L5.57143 7.41429V0H6.42857V7.41429L8.42571 5.41714L9.03257 6.03257L6 9.066ZM1.38429 12C0.99 12 0.660857 11.868 0.396857 11.604C0.132857 11.34 0.000571429 11.0106 0 10.6157V8.53886H0.857143V10.6157C0.857143 10.7471 0.912 10.868 1.02171 10.9783C1.13143 11.0886 1.25229 11.1434 1.38429 11.1429H10.6157C10.7471 11.1429 10.868 11.088 10.9783 10.9783C11.0886 10.8686 11.1434 10.7477 11.1429 10.6157V8.53886H12V10.6157C12 11.01 11.868 11.3391 11.604 11.6031C11.34 11.8671 11.0106 11.9994 10.6157 12H1.38429Z" fill="black"/>
</svg>
