<svg width="14" height="15" viewBox="0 0 14 15" fill="none" xmlns="http://www.w3.org/2000/svg">
<path d="M10.1875 3.17807C10.3533 3.45322 10.6081 3.66787 10.9126 3.78882C11.2171 3.90976 11.5544 3.93025 11.8721 3.84713C12.1899 3.76401 12.4705 3.5819 12.6705 3.32897C12.8705 3.07605 12.9789 2.7664 12.9787 2.44794C12.9786 2.22551 12.9255 2.0061 12.8236 1.80671C12.7218 1.60732 12.5738 1.4333 12.3912 1.29814C12.2086 1.16298 11.9963 1.07031 11.7707 1.02732C11.5452 0.984327 11.3124 0.992162 11.0905 1.05022C10.8685 1.10827 10.6634 1.21499 10.4909 1.3621C10.3185 1.50921 10.1834 1.69275 10.0961 1.89851C10.0088 2.10428 9.97161 2.32672 9.98747 2.54862C10.0033 2.77051 10.0718 2.98589 10.1875 3.17807ZM10.1875 3.17807L3.79069 6.78816M3.79069 6.78816C3.62486 6.51322 3.37004 6.29878 3.06562 6.17798C2.76119 6.05718 2.42412 6.03675 2.10649 6.11985C1.78887 6.20295 1.50838 6.38496 1.30838 6.63773C1.10838 6.8905 1 7.19997 1 7.51829C1 7.83662 1.10838 8.14609 1.30838 8.39886C1.50838 8.65163 1.78887 8.83364 2.10649 8.91674C2.42412 8.99984 2.76119 8.97941 3.06562 8.85861C3.37004 8.73781 3.62486 8.52337 3.79069 8.24843M3.79069 6.78816C3.92435 7.00976 3.99478 7.26173 3.99478 7.51829C3.99478 7.77486 3.92435 8.02683 3.79069 8.24843M3.79069 8.24843L10.1875 11.8585M10.1875 11.8585C10.2834 11.6883 10.4135 11.5384 10.5702 11.4178C10.727 11.2971 10.9072 11.2081 11.1001 11.156C11.2931 11.1039 11.4949 11.0898 11.6936 11.1145C11.8923 11.1392 12.0838 11.2022 12.2569 11.2999C12.4299 11.3975 12.581 11.5277 12.7011 11.6828C12.8212 11.8379 12.9079 12.0148 12.9561 12.2029C13.0042 12.391 13.0129 12.5866 12.9816 12.778C12.9502 12.9694 12.8795 13.1528 12.7735 13.3173C12.5676 13.6372 12.2408 13.8668 11.8627 13.9575C11.4846 14.0481 11.0849 13.9926 10.7483 13.8028C10.4118 13.613 10.165 13.3037 10.0603 12.9407C9.95562 12.5777 10.0013 12.1895 10.1875 11.8585Z" stroke="black" stroke-linecap="round" stroke-linejoin="round"/>
</svg>
