<svg width="23" height="16" viewBox="0 0 23 16" fill="none" xmlns="http://www.w3.org/2000/svg">
<path d="M11.574 0H11.702C12.8837 0.00427084 18.8712 0.0469795 20.4857 0.476911C20.9737 0.608123 21.4184 0.863881 21.7754 1.21863C22.1324 1.57337 22.3891 2.01468 22.5198 2.49844C22.665 3.03942 22.7671 3.75549 22.8361 4.49435L22.8505 4.64241L22.8821 5.01255L22.8936 5.1606C22.9871 6.46178 22.9986 7.6804 23 7.94661V8.05339C22.9986 8.32957 22.9856 9.63075 22.8821 10.986L22.8706 11.1355L22.8577 11.2836C22.7858 12.0979 22.6794 12.9065 22.5198 13.5016C22.3891 13.9853 22.1324 14.4266 21.7754 14.7814C21.4184 15.1361 20.9737 15.3919 20.4857 15.5231C18.8181 15.9673 12.4797 15.9986 11.6013 16H11.3972C10.953 16 9.11576 15.9915 7.18939 15.926L6.945 15.9174L6.81993 15.9117L6.5741 15.9018L6.32827 15.8918C4.73255 15.822 3.21301 15.7096 2.51291 15.5217C2.02503 15.3906 1.58041 15.135 1.22346 14.7806C0.866511 14.4261 0.609715 13.9851 0.478717 13.5016C0.319145 12.9079 0.212763 12.0979 0.140884 11.2836L0.129383 11.1341L0.117882 10.986C0.0465253 10.0214 0.00720997 9.05473 0 8.08755L0 7.91245C0.00287518 7.60637 0.0143759 6.54862 0.0920058 5.38126L0.102069 5.23463L0.106382 5.1606L0.117882 5.01255L0.149509 4.64241L0.163885 4.49435C0.23289 3.75549 0.334958 3.03799 0.480155 2.49844C0.610933 2.01468 0.867631 1.57337 1.2246 1.21863C1.58156 0.863881 2.02629 0.608123 2.51434 0.476911C3.21445 0.291841 4.73398 0.177952 6.32971 0.106771L6.5741 0.0968057L6.82136 0.0882643L6.945 0.0839934L7.19082 0.0740282C8.55899 0.0304705 9.92772 0.00626641 11.2966 0.00142368L11.574 0ZM9.20058 4.5698V11.4288L15.1766 8.00071L9.20058 4.5698Z" fill="#6459F7"/>
</svg>
